<?xml version="1.0" standalone="no"?><!DOCTYPE svg PUBLIC "-//W3C//DTD SVG 1.1//EN" "http://www.w3.org/Graphics/SVG/1.1/DTD/svg11.dtd"><svg t="1668570291349" class="icon" viewBox="0 0 1024 1024" version="1.1" xmlns="http://www.w3.org/2000/svg" p-id="3628" xmlns:xlink="http://www.w3.org/1999/xlink" width="16" height="16"><path d="M665.6 409.6h-204.8c-7.68 0-12.8-5.12-12.8-12.8s5.12-12.8 12.8-12.8h204.8c7.68 0 12.8 5.12 12.8 12.8s-5.12 12.8-12.8 12.8zM665.6 524.8h-204.8c-7.68 0-12.8-5.12-12.8-12.8s5.12-12.8 12.8-12.8h204.8c7.68 0 12.8 5.12 12.8 12.8s-5.12 12.8-12.8 12.8zM665.6 640h-204.8c-7.68 0-12.8-5.12-12.8-12.8s5.12-12.8 12.8-12.8h204.8c7.68 0 12.8 5.12 12.8 12.8s-5.12 12.8-12.8 12.8z" fill="#231815" p-id="3629"></path><path d="M358.4 409.6c-2.56 0-7.68-2.56-10.24-5.12-2.56-2.56-2.56-5.12-2.56-7.68 0-2.56 0-7.68 2.56-10.24 5.12-5.12 12.8-5.12 17.92 0 2.56 2.56 5.12 5.12 5.12 10.24 0 2.56-2.56 7.68-5.12 7.68 0 2.56-5.12 5.12-7.68 5.12zM358.4 524.8c-2.56 0-7.68-2.56-10.24-5.12-2.56-2.56-2.56-5.12-2.56-7.68 0-2.56 0-7.68 2.56-10.24 5.12-5.12 12.8-5.12 17.92 0 2.56 2.56 5.12 5.12 5.12 10.24 0 2.56-2.56 7.68-5.12 7.68 0 2.56-5.12 5.12-7.68 5.12zM358.4 640c-2.56 0-7.68-2.56-10.24-5.12-2.56-2.56-2.56-5.12-2.56-7.68 0-2.56 0-7.68 2.56-10.24 5.12-5.12 12.8-5.12 17.92 0 2.56 2.56 5.12 5.12 5.12 10.24 0 2.56-2.56 7.68-5.12 7.68 0 2.56-5.12 5.12-7.68 5.12z" fill="#231815" p-id="3630"></path></svg>